<svg width="80" height="80" viewBox="0 0 80 80" fill="none" xmlns="http://www.w3.org/2000/svg">
<g clip-path="url(#clip0_531_1141)">
<path d="M50.0781 0.375008C48.6719 0.703133 47.4844 1.18751 46.4375 1.87501C45.1875 2.67188 43.9531 3.87501 43.8125 4.42188C43.6563 5.06251 44.1563 5.68751 44.8594 5.75001C45.3125 5.78126 45.5313 5.65626 46.3281 4.92188C49.1563 2.31251 52.9375 1.79688 56.3125 3.56251C58.4219 4.65626 60.125 6.90626 60.625 9.23438C60.9063 10.4688 60.75 12.8281 60.3438 13.9531C58.8125 18.2031 54.0625 20.5781 49.7656 19.25C47.0156 18.4063 44.7188 15.9844 43.9844 13.1719C43.8438 12.6563 43.75 11.5938 43.75 10.6719C43.75 9.26563 43.7031 9.01563 43.4375 8.75001C42.7969 8.10938 41.7031 8.51563 41.4688 9.46876C41.2656 10.2656 41.5156 13.3125 41.875 14.375C43.0625 17.9375 45.6875 20.4531 49.375 21.5781C50.8594 22.0313 53.4531 22.0625 55 21.6563C58.8125 20.6406 61.8594 17.5781 62.8281 13.7813C63.1875 12.3281 63.2188 9.84376 62.8906 8.51563C62.7656 8.00001 62.3281 6.90626 61.9219 6.09376C60.6719 3.54688 58.3594 1.59376 55.5469 0.687508C54 0.187508 51.5156 0.0468826 50.0781 0.375008Z" fill="#353535"/>
<path d="M9.85942 9.70312C7.92192 10.0312 5.79692 11.5625 4.93755 13.25C4.06255 14.9844 3.87505 16.5 4.31255 18.5C4.62505 19.9219 4.5313 20.4688 3.82817 21.4688C3.18755 22.375 3.14067 22.8438 3.67192 23.3594C4.2813 23.9688 4.87505 23.875 5.5313 23.0781C6.75005 21.5938 7.0938 20 6.64067 18.125C6.00005 15.5312 6.95317 13.4062 9.20317 12.375C11.4532 11.3438 14.1875 12.3438 15.25 14.6094C15.7813 15.75 15.8594 16.5156 15.5469 17.9219C15.1563 19.6719 15.2813 20.8125 16 22.0625C16.3125 22.6094 16.7969 23.5 17.0782 24.0625C17.6094 25.1562 17.6563 25.6094 17.5 29.3281L17.4375 30.6094L18.4063 32.5312C19.1875 34.0781 19.4063 34.6875 19.5469 35.6562C20.125 39.6719 17.7344 43.5938 13.9219 44.9375C12.0938 45.5938 12.1875 45.7031 12.1875 42.9375V40.5469L14.3125 38.4219C16.125 36.6094 16.4219 36.2344 16.4375 35.7969C16.4532 35.1406 15.9688 34.6406 15.3125 34.6406C14.9063 34.6406 14.5938 34.8594 13.5 35.9531L12.1875 37.2656V32.2969V27.3281L11.7969 26.9531C11.3438 26.4844 10.7969 26.4531 10.2969 26.8594C9.93755 27.1562 9.92192 27.2344 9.87505 29.9219L9.82817 32.6875L8.5938 31.5C7.92192 30.8438 7.26567 30.3125 7.14067 30.3125C6.43755 30.3125 5.7813 30.9844 5.7813 31.6719C5.7813 31.8125 6.70317 32.8438 7.81255 33.9844L9.8438 36.0312V40.6719C9.8438 44.5312 9.81255 45.3125 9.62505 45.3125C9.50005 45.3125 8.9688 45.1719 8.42192 45C5.93755 44.2344 3.82817 42.1406 2.93755 39.5625C2.6563 38.7344 2.57817 38.1719 2.57817 36.875C2.57817 34.9688 2.79692 34.2031 3.85942 32.2188C4.62505 30.8125 4.8438 29.6719 4.60942 28.2031C4.42192 26.8594 3.37505 26.2969 2.56255 27.1094C2.20317 27.4688 2.18755 27.5625 2.2813 28.7344L2.39067 29.9688L1.51567 31.7344C-0.249951 35.2969 -0.296826 38.3281 1.35942 41.7188C1.9688 42.9688 2.2813 43.4062 3.42192 44.5312C4.32817 45.4375 5.10942 46.0469 5.85942 46.4375C7.0313 47.0312 8.8438 47.6562 9.4688 47.6562H9.8438V56.2812V64.9062L8.89067 66.3594L7.92192 67.8125H6.39067H4.8438V67.1094C4.8438 66.6719 4.92192 66.375 5.04692 66.3438C6.25005 66.0156 6.56255 65.6406 6.3438 64.7812C6.18755 64.1562 5.45317 63.9062 3.68755 63.9062C2.12505 63.9062 1.48442 64.0625 1.1563 64.5C0.656299 65.1406 1.2188 66.25 2.04692 66.25C2.48442 66.25 2.50005 66.2656 2.50005 67.0312V67.8125H1.5938C0.843799 67.8125 0.625049 67.875 0.343799 68.1719C-0.531201 69.0938 0.250049 70.1562 1.79692 70.1562H2.50005V74.6094V79.0781L2.89067 79.4531C3.37505 79.9531 3.9688 79.9531 4.45317 79.4531L4.8438 79.0781V74.6094V70.1562H6.0938H7.32817L7.37505 74.7031L7.42192 79.25L7.79692 79.5469C8.1563 79.8438 8.89067 79.8438 40 79.8438C71.1094 79.8438 71.8438 79.8438 72.2032 79.5469L72.5782 79.25L72.625 74.7031L72.6719 70.1562H73.9063H75.1563V74.6094V79.0781L75.5469 79.4531C76.0313 79.9531 76.625 79.9531 77.1094 79.4531L77.5 79.0781V74.6094V70.1562H78.2032C79.75 70.1562 80.4532 69.2188 79.6719 68.2188C79.3907 67.8594 79.2344 67.8125 78.4219 67.8125H77.5V67.0312C77.5 66.2656 77.5157 66.25 77.9532 66.25C78.7813 66.25 79.3438 65.1406 78.8438 64.5C78.5157 64.0625 77.875 63.9062 76.3125 63.9062C74.5469 63.9062 73.8125 64.1562 73.6563 64.7812C73.4375 65.6406 73.75 66.0156 74.9688 66.3438C75.0782 66.375 75.1563 66.6719 75.1563 67.1094V67.8125H73.6094H72.0625L71.0313 66.2344L70 64.6406V57.7188V50.7812L70.4375 50.7031C72.6407 50.2344 74.2032 49.375 75.6407 47.8438C77.4063 45.9688 78.1719 44.0312 78.1719 41.4062C78.1719 39.75 77.75 38.2031 76.875 36.6562L76.3907 35.8125L76.5 34.0156C76.625 31.9062 76.4532 31 75.6563 29.5312C74.375 27.1406 74.4688 27.5156 74.7813 25.9375C75.0313 24.7188 75.0469 24.4219 74.8594 23.5625C74.2813 20.75 72.1094 18.7969 69.3594 18.625C65.1094 18.375 62.0313 22.1719 63.125 26.3438C63.375 27.3125 63.2969 27.6406 62.5782 28.75C61.4375 30.5156 61.1875 31.8438 61.3907 35.0781C61.4219 35.75 61.3438 36.0312 60.8125 37.0312C60 38.5469 59.6875 39.7812 59.6875 41.5156C59.6875 44.1406 60.5 46.1094 62.3438 47.9844C63.625 49.2812 65.1875 50.1875 66.75 50.5469L67.5782 50.7344L67.625 55.9375C67.6407 58.8125 67.6407 61.125 67.5938 61.0781C67.5625 61.0469 64.7032 56.7969 61.25 51.6406C57.7969 46.4844 54.8125 42.1094 54.6407 41.9062C53.9375 41.1406 52.5313 41.7969 52.6875 42.8125C52.7188 43.0312 56.7032 49.0781 61.5313 56.2812L70.3125 69.3438V73.4219V77.5H61.7657L53.2032 77.4844L53.6719 77.0781C53.9375 76.8594 55.1407 75.7969 56.3594 74.7344C57.5625 73.6719 58.6094 72.6875 58.6563 72.5625C58.9532 71.7969 58.8438 71.6719 50 62.3594L41.2657 53.1562L41.2188 45.25C41.1719 37.3594 41.1719 37.3594 40.8282 37.0156C40.375 36.5625 39.625 36.5625 39.1719 37.0156C38.8282 37.3594 38.8282 37.3594 38.7813 45.25L38.7344 53.1562L30 62.3594C21.1719 71.6562 21.0469 71.7969 21.3438 72.5469C21.3907 72.6719 22.625 73.8281 24.0782 75.0938C25.5313 76.3594 26.7188 77.4219 26.7188 77.4531C26.7188 77.4688 22.8907 77.5 18.2032 77.5H9.68755V73.4219V69.3438L24.7813 46.8594C33.0782 34.5 39.9219 24.375 40 24.375C40.0782 24.375 42.3282 27.6406 45.0157 31.6406C47.6875 35.6406 50.0313 39.0156 50.2032 39.1406C50.6719 39.4688 51.0157 39.4375 51.5 39.0156C51.7969 38.75 51.9219 38.5 51.9063 38.1719C51.8907 37.4844 40.9063 21.125 40.375 21C39.4688 20.7656 39.375 20.8906 35.7188 26.3594C33.7813 29.25 32.1719 31.5156 32.125 31.3906C31.7657 30.2188 31.2813 29.125 30.7032 28.2344C29.8282 26.875 29.75 26.4844 30.0782 25.1406C30.8125 22.1719 29.8125 19.2969 27.4375 17.5469C26.125 16.5781 24.7657 16.2031 22.9219 16.2812C21.1719 16.3594 19.9219 16.875 18.6094 18.0625C17.8594 18.7344 17.7657 18.7812 17.8594 18.4375C18.5 15.8906 17.75 13.3594 15.8438 11.5781C14.7032 10.5 13.5625 9.92188 12.1719 9.70312C11.0469 9.51562 11.0313 9.51562 9.85942 9.70312ZM25.25 18.9688C25.6875 19.1719 26.2969 19.5938 26.6094 19.9062C27.875 21.1719 28.1875 22.5625 27.7344 24.9062C27.4688 26.25 27.4688 26.3906 27.7188 27.3438C27.8594 27.9062 28.2657 28.7812 28.6094 29.3281C29.75 31.0781 30.1719 32.7656 29.8594 34.4062C29.7188 35.1719 29.3438 35.8438 27.1094 39.1719C24.7657 42.7031 24.5313 43 24.5313 42.4844C24.5313 41.2969 23.2813 40.625 22.5 41.4062C22.2188 41.6875 22.1875 41.9219 22.1875 44.1094V46.4844L20.7032 48.7188L19.2032 50.9531L18.7188 50.6719C17.9375 50.2344 16.375 48.5781 15.8907 47.7031L15.4688 46.8906L16.4375 46.375C17.9688 45.5781 19.9219 43.5312 20.75 41.875C21.625 40.0938 21.9375 38.8594 21.9375 36.9531C21.9532 34.9531 21.5938 33.5469 20.5938 31.5938C19.75 29.9531 19.75 29.9688 19.9219 27.3438C20.0469 25.5469 19.8438 24.4062 19.1563 22.8906C18.8282 22.1719 18.8125 22.0625 19.0157 21.4688C19.3282 20.5312 20.1875 19.625 21.2813 19.0781C22.5469 18.4375 24.0313 18.4062 25.25 18.9688ZM70.5938 21.3438C71.5782 21.8281 72.2657 22.7188 72.5157 23.8125C72.6563 24.4844 72.6407 24.8281 72.4219 25.8125C72.0938 27.3438 72.2657 28.2969 73.1563 29.7812C74.1094 31.3438 74.2188 31.875 74.1719 34.4375L74.1407 36.6406L74.8125 37.8438C76.5782 41.0156 76.0938 44.3281 73.5157 46.7031C72.7344 47.4219 71.4532 48.0938 70.5469 48.2344L70 48.3281V46.5625V44.7969L71.8125 42.9531C73.5157 41.2031 73.6094 41.0625 73.5625 40.5312C73.5 39.7969 72.8907 39.2812 72.2657 39.4375C72.0313 39.5 71.4219 39.9375 70.9219 40.4219L70 41.2969V37.3125C70 33.5156 69.9844 33.3125 69.6875 33.0469C69.25 32.6562 68.5 32.6875 68.0782 33.1094C67.7657 33.4219 67.7344 33.6406 67.6719 35.4844L67.625 37.5156L66.9375 36.875C66.1719 36.1719 65.8438 36.1094 65.25 36.5781C64.9532 36.8125 64.8438 37.0469 64.8438 37.4531C64.8438 37.9375 65.0157 38.1875 66.25 39.4375L67.6563 40.875V44.5938V48.3125L67.1563 48.2188C65.4532 47.8906 63.4532 46.2188 62.625 44.4219C62.2188 43.5469 62.1094 43.125 62.0625 42C61.9844 40.3281 62.1563 39.5625 63.0625 37.7344C63.8125 36.2031 63.8907 35.7188 63.6875 33.7344C63.5313 32.2656 63.7969 31.2031 64.6875 29.8281C65.5625 28.4531 65.7344 27.5156 65.4219 25.8125C65.25 24.9219 65.2032 24.2656 65.2969 23.9062C65.8594 21.4688 68.3907 20.2344 70.5938 21.3438ZM13.6719 48.5156C14.2969 49.7344 15.625 51.2969 16.7657 52.125C17.2969 52.5156 17.7657 52.875 17.7969 52.9062C17.8438 52.9375 16.6094 54.8438 15.0625 57.125L12.2657 61.2812L12.2188 54.6562C12.2032 51.0156 12.2188 47.9531 12.2657 47.8438C12.2969 47.75 12.5313 47.6562 12.7813 47.6562C13.1875 47.6562 13.2969 47.7656 13.6719 48.5156ZM44.1094 66.9062C46.3125 72.4375 48.1563 77.0781 48.2188 77.2188C48.3125 77.4844 47.8594 77.5 40 77.5C32.1407 77.5 31.6875 77.4844 31.7813 77.2188C32.4688 75.375 39.9375 56.875 40 56.875C40.0469 56.875 41.9063 61.3906 44.1094 66.9062ZM33.0313 67.8281C31.0938 72.6719 29.4844 76.6562 29.4844 76.6562C29.4219 76.7031 24.2188 72.0938 24.2188 71.9844C24.2032 71.8594 36.4532 58.8906 36.5157 58.9688C36.5313 58.9844 34.9688 62.9688 33.0313 67.8281ZM50.3125 66.0781C53.3594 69.2969 55.8438 71.9688 55.8282 72.0156C55.7813 72.125 50.5625 76.7031 50.5157 76.6719C50.4844 76.625 43.5782 59.3438 43.4844 59.0625C43.3907 58.7969 43.0782 58.4688 50.3125 66.0781Z" fill="#353535"/>
</g>
<defs>
<clipPath id="clip0_531_1141">
<rect width="80" height="80" fill="white"/>
</clipPath>
</defs>
</svg>
