<svg width="80" height="80" viewBox="0 0 80 80" fill="none" xmlns="http://www.w3.org/2000/svg">
<g clip-path="url(#clip0_1249_5804)">
<path d="M66.2813 0.312509C65.8125 0.750009 65.7344 1.15626 65.8125 2.89063C65.8594 4.32813 65.8907 4.42188 66.2969 4.78126C66.8282 5.23438 67.1719 5.25001 67.7188 4.82813C68.125 4.51563 68.125 4.48438 68.125 2.57813C68.125 0.671885 68.125 0.640634 67.7188 0.328134C67.1875 -0.0781159 66.7188 -0.0937409 66.2813 0.312509Z" fill="#353535"/>
<path d="M57.9063 3.79688C57.1719 4.53125 57.3282 4.9375 58.8907 6.45312C59.6876 7.25 60.4063 7.8125 60.5782 7.8125C61.1563 7.8125 61.7188 7.21875 61.7188 6.60938C61.7188 6.125 61.5626 5.89062 60.5157 4.82812C59.0782 3.375 58.5469 3.15625 57.9063 3.79688Z" fill="#353535"/>
<path d="M73.7344 4.62502C72.3125 6.00002 72.0781 6.40627 72.3437 7.0469C72.5469 7.53127 73.2656 7.89065 73.7187 7.75002C73.875 7.68752 74.5937 7.0469 75.3125 6.32815C76.5156 5.09377 76.5937 4.96877 76.5 4.50002C76.375 3.8594 76.1406 3.62502 75.5 3.50002C75.0469 3.40627 74.9062 3.4844 73.7344 4.62502Z" fill="#353535"/>
<path d="M64.8907 6.85938C62.7032 7.67188 61.1719 9.45313 60.6875 11.7344C59.7969 16.0313 63.6094 20.0625 67.9375 19.3906C70.0782 19.0625 71.9375 17.6719 72.9219 15.6563C73.3282 14.8438 73.3594 14.6094 73.3594 13.0469C73.3594 11.4531 73.3282 11.2656 72.875 10.3125C72.1563 8.82813 71.2813 7.92188 69.8907 7.23438C68.7969 6.70313 68.5782 6.64063 67.2032 6.60938C66.0313 6.57813 65.5157 6.64063 64.8907 6.85938ZM68.6719 9.20313C70.2344 9.90626 71.0938 11.25 71.0938 12.9531C71.0782 15.3438 69.3594 17.0938 67.0313 17.0781C65.8282 17.0781 65.125 16.8125 64.25 16.0156C63.3282 15.1875 62.9063 14.2188 62.9063 12.9688C62.9375 10.6406 64.6875 8.90626 67.0157 8.90626C67.6719 8.90626 68.2813 9.01563 68.6719 9.20313Z" fill="#353535"/>
<path d="M25.9375 11.1094C14.2969 12.0781 4.26562 20.375 1.09375 31.6562C0.328125 34.375 0.078125 36.3281 0.09375 39.4531C0.109375 42.7344 0.3125 44.1719 0.796875 44.5625C1.23438 44.9219 2.0625 44.9219 2.51562 44.5469C2.82812 44.2969 2.875 44.1406 2.84375 43.3437C2.78125 42.0469 3.17188 40.8906 3.95312 40.0469C4.92188 39 5.625 38.6875 7.03125 38.6719C8.04688 38.6719 8.3125 38.7344 9.04688 39.1406C10.0625 39.7031 10.8594 40.7031 11.1875 41.8281C11.5625 43.0937 12.4375 43.5156 13.2031 42.75C13.5312 42.4219 13.5781 42.2344 13.5625 41.2344C13.5469 39.8906 13.8281 39.0781 14.5781 38.3125C16.6875 36.1094 20.4531 36.6094 21.5469 39.25C22.1094 40.5937 22.2344 40.7969 22.6875 41.0312C23.6562 41.5312 24.2188 41.0625 24.2188 39.7187C24.2188 38.5469 24.4219 37.8437 25.0469 36.9375C25.5469 36.2031 26.3281 35.5 26.4844 35.6406C26.6094 35.7656 28.8906 49.75 28.7969 49.875C28.7656 49.9531 22.4062 50 14.6875 50H0.640625L0.328125 50.4062C-0.078125 50.9375 -0.078125 51.25 0.328125 51.7812L0.640625 52.1875L14.9688 52.2187L29.2969 52.2656L29.875 55.8437C30.2031 57.8125 30.4375 59.4687 30.3906 59.5C30.3438 59.5469 30.1875 59.4687 30.0469 59.3437C29.5 58.875 26.6094 57.1875 25.3125 56.5781C22.4375 55.2344 19.9844 54.6875 16.7812 54.6875C14.3281 54.6875 12.3594 55 10.1562 55.7187C6.92188 56.7969 3.92188 58.6875 1.64062 61.125C0.21875 62.6406 -0.125 63.25 0.09375 63.875C0.28125 64.4062 0.96875 64.75 1.48438 64.5781C1.6875 64.5156 2.26562 63.9687 2.76562 63.3594C5.09375 60.5937 8.34375 58.5781 12.1875 57.5469C14.0312 57.0625 17.5938 56.875 19.5 57.1875C23.0781 57.7656 26.1719 59.3437 32.1094 63.6875C38.1719 68.125 40.5625 69.4687 43.9844 70.4062C45.75 70.8906 48.5938 71.0625 50.4844 70.7969C53.0156 70.4219 56.9531 69.2656 57.4219 68.75C57.7812 68.3437 57.7812 67.5937 57.4219 67.1875C57.0469 66.7656 56.4062 66.7812 54.9844 67.2812C50.4688 68.8281 46.8594 68.9844 43.4375 67.7812C40.9688 66.9062 39.0469 65.7969 35.3125 63.0937L33.1875 61.5625L32.4531 57.0781C32.0469 54.5937 31.7188 52.4844 31.7188 52.375C31.7188 52.2344 36.5938 52.1875 55.5469 52.1875H79.3594L79.6875 51.8437C80.0938 51.4062 80.0938 50.7812 79.6875 50.3437L79.3594 50H55.3906C40.625 50 31.3906 49.9375 31.3281 49.8594C31.25 49.7031 28.9062 35.7344 28.9062 35.3437C28.9062 34.8437 30.3281 35.3594 31.2656 36.2031C31.9219 36.7969 32.375 37.5469 32.5625 38.3594C32.7656 39.1875 33.0781 39.5312 33.6562 39.5312C33.9531 39.5312 34.3438 39.3906 34.5469 39.2344C34.875 38.9687 34.9219 38.8281 34.875 37.9531C34.7656 35.1562 36.4062 33.4375 39.2031 33.4375C40.3906 33.4375 41.5312 33.8906 42.2188 34.625C42.6719 35.125 43.2656 36.3125 43.2812 36.7656C43.2812 37.1719 43.9844 37.8125 44.4219 37.8125C44.625 37.8125 44.9844 37.6719 45.2188 37.4844C45.5938 37.1875 45.625 37.0781 45.625 35.9375C45.625 34.9062 45.6875 34.5937 46.0625 33.8906C47.0625 31.9531 49.8125 31.1094 51.8594 32.125C52.8281 32.6094 53.4844 33.4375 53.8281 34.5781C54.125 35.5937 54.4531 35.9375 55.0938 35.9375C55.6875 35.9375 56.25 35.3437 56.25 34.7031C56.25 34.1562 55.5781 31.4531 55.1094 30.0781C51.4688 19.5 41.9219 12.0937 30.625 11.0937C28.6406 10.9219 28.1094 10.9219 25.9375 11.1094ZM25.0469 14.3594C26.9062 16.4219 29.2344 22.7031 31.0781 30.6875C31.4375 32.2031 31.7188 33.4687 31.7188 33.5156C31.7188 33.5625 31.5312 33.5 31.2969 33.375C30.0781 32.75 28 32.6094 26.5 33.0312C26.0312 33.1719 25.1719 33.6094 24.5938 34C24.0312 34.3906 23.5469 34.6875 23.5156 34.6562C23.5 34.625 23.3594 33.4531 23.2188 32.0312C22.4844 24.4375 22.5938 18.0625 23.5469 15.0781C24.0312 13.5156 24.2188 13.4375 25.0469 14.3594ZM36.5938 14.6875C42.1719 16.5469 47.4219 20.7187 50.4688 25.7031C51.1562 26.8125 52.5156 29.5625 52.4375 29.6406C52.4062 29.6719 51.9844 29.5937 51.4688 29.4531C49.2656 28.875 46.9844 29.4687 45.2969 31.0469C44.7656 31.5312 44.5156 31.6875 44.4688 31.5469C44.4219 31.4219 44.0938 30.4531 43.75 29.375C41.6719 23.0937 38.0781 17.6094 33.8281 14.2812L33.2031 13.7812L34.2188 14.0156C34.7812 14.1406 35.8438 14.4375 36.5938 14.6875ZM30.0781 14.7656C31.8594 15.6406 33.2344 16.6875 34.7812 18.3281C36.9375 20.6094 38.7969 23.5 40.2656 26.8594C40.9219 28.3594 42.0781 31.5625 41.9688 31.5625C41.9375 31.5625 41.625 31.4531 41.2656 31.3281C39.0625 30.5625 36.4844 31.0937 34.75 32.6875C34.0938 33.2969 34.0781 33.2969 34 32.9375C32.2188 24.8281 30.5312 19.4531 28.5938 15.6406L27.6875 13.875L28.1875 13.9687C28.4531 14.0156 29.3125 14.375 30.0781 14.7656ZM20.8438 16.25C20.4531 18.5156 20.2969 22.625 20.4688 26.2031C20.6094 29.1719 20.9375 33.125 21.1875 34.7969L21.2812 35.4687L20.375 35.0469C19.6719 34.7187 19.1406 34.6094 18.1094 34.5625C16.3906 34.4844 15.3594 34.7656 13.9688 35.7187L12.9219 36.4375L13.0312 33.3281C13.0781 31.625 13.1719 29.8125 13.2188 29.2812C13.3125 28.4219 13.2812 28.2969 12.9531 27.9844C12.5156 27.5781 11.875 27.5625 11.4219 27.9219C10.9219 28.3281 10.7812 29.4219 10.6719 33.5469C10.625 35.5469 10.5625 37.1875 10.5469 37.1875C10.5312 37.1875 10.0938 37 9.59375 36.7656C8.78125 36.375 8.48438 36.3281 7.10938 36.3281C5.67188 36.3281 5.45312 36.375 4.5 36.8281C3.90625 37.1094 3.1875 37.5156 2.875 37.75L2.32812 38.1719L2.42188 37.3281C3.20312 30.4531 5.67188 25.2031 10.25 20.75C11.9062 19.125 14.8906 16.875 15.375 16.875C15.4219 16.875 15.1719 17.3125 14.8281 17.8437C14.0781 19.0156 12.9531 21.2969 12.5781 22.4844C12.3125 23.2969 12.3125 23.3281 12.6094 23.7344C12.875 24.0625 13.0469 24.1406 13.6094 24.1406C14.3906 24.1406 14.25 24.3281 15.5312 21.5312C16.7656 18.8281 18.2656 16.8437 20.0625 15.5156C20.5625 15.1406 21 14.8594 21.0312 14.8906C21.0625 14.9062 20.9688 15.5312 20.8438 16.25Z" fill="#353535"/>
<path d="M54.375 12.1875C53.9844 12.5781 53.9687 13.2969 54.3594 13.7656C54.6406 14.125 54.75 14.1406 56.5469 14.1406C58.2656 14.1406 58.4531 14.1094 58.7656 13.7969C59.2187 13.3438 59.2031 12.5312 58.7344 12.1562C58.4687 11.9219 58.0781 11.875 56.5469 11.875C54.8906 11.875 54.6562 11.9062 54.375 12.1875Z" fill="#353535"/>
<path d="M75.1719 12.2812C74.7344 12.8438 74.7657 13.2188 75.2969 13.7656C75.75 14.2031 75.7969 14.2188 77.3438 14.2188C78.4219 14.2188 79.0625 14.1406 79.3594 13.9844C80.0782 13.625 80.2032 12.9531 79.6719 12.2812C79.3594 11.875 79.3282 11.875 77.4219 11.875C75.5157 11.875 75.4844 11.875 75.1719 12.2812Z" fill="#353535"/>
<path d="M58.7812 19.5937C57.3593 21.0469 57.2187 21.4531 57.8906 22.1094C58.5468 22.7812 58.9531 22.6406 60.4062 21.2187C61.5781 20.0781 61.7187 19.8906 61.7187 19.375C61.7187 18.6562 61.3281 18.2812 60.5937 18.2812C60.1249 18.2812 59.8906 18.4375 58.7812 19.5937Z" fill="#353535"/>
<path d="M72.5156 18.6875C72.3281 18.9219 72.1875 19.25 72.1875 19.4219C72.1875 19.5937 72.75 20.3125 73.5469 21.1094C75.0625 22.6562 75.4688 22.8125 76.1719 22.1094C76.8594 21.4375 76.7031 21.0312 75.2656 19.5781C74.1094 18.4375 73.9062 18.2812 73.4062 18.2812C72.9688 18.2812 72.75 18.3906 72.5156 18.6875Z" fill="#353535"/>
<path d="M66.1562 21.2656C65.9062 21.5469 65.8594 21.8438 65.8594 23.4688C65.8594 25.25 65.875 25.3594 66.2344 25.6406C66.7031 26.0313 67.4219 26.0156 67.8125 25.625C68.0938 25.3438 68.125 25.1094 68.125 23.4688C68.125 21.2813 67.9844 20.9375 67.0469 20.9375C66.6406 20.9375 66.3594 21.0469 66.1562 21.2656Z" fill="#353535"/>
<path d="M51.3437 55.9219C50.9531 56.3438 50.9687 57.1406 51.3906 57.5469L51.7343 57.8906H62.25C72.3906 57.8906 72.7968 57.875 73.1093 57.5938C73.5 57.2344 73.5468 56.4688 73.1875 55.9688L72.9531 55.625H62.2812C52 55.625 51.5937 55.6406 51.3437 55.9219Z" fill="#353535"/>
<path d="M44.6562 60.7812C44.2812 61.1719 44.2031 61.3438 44.2812 61.6875C44.3437 61.9219 44.5312 62.2344 44.7187 62.375C44.9999 62.625 45.4999 62.6562 49.9843 62.6562H54.9531L55.2812 62.2969C55.7343 61.8125 55.7187 61.1719 55.2343 60.7031L54.8593 60.3125H49.9999H45.1249L44.6562 60.7812Z" fill="#353535"/>
<path d="M66.875 63.8438C64.4843 64.1875 63.3281 64.4688 63.0156 64.7969C62.5312 65.2656 62.5468 65.9375 63.0468 66.4063L63.4375 66.7813L65.2031 66.4688C69.9687 65.6563 73.9843 66.4531 77.2187 68.875C77.7812 69.3125 78.3906 69.7031 78.5625 69.75C79.1875 69.9531 80 69.25 80 68.5156C80 67.6563 76.7656 65.5313 74.0468 64.5938C72.0937 63.9375 68.75 63.5781 66.875 63.8438Z" fill="#353535"/>
<path d="M24.8438 64.5312C24.3751 65 24.4219 65.8281 24.9376 66.2344C25.1719 66.4219 25.4688 66.5625 25.6251 66.5625C25.7813 66.5625 26.0782 66.4219 26.3126 66.2344C27.1251 65.5938 26.6719 64.2188 25.6251 64.2188C25.3594 64.2188 25.0157 64.3594 24.8438 64.5312Z" fill="#353535"/>
<path d="M4.62504 66.8125C3.70316 67.7188 4.56254 69.1563 5.76566 68.7344C6.90629 68.3281 6.59379 66.5625 5.37504 66.5625C5.09379 66.5625 4.75004 66.6719 4.62504 66.8125Z" fill="#353535"/>
<path d="M70.1094 71.2031C69.7344 71.2969 69.3282 72.125 69.4688 72.5469C69.7501 73.5156 70.8126 73.7656 71.3907 73.0312C71.8282 72.4844 71.7969 71.9531 71.3282 71.4844C70.9688 71.1094 70.7032 71.0469 70.1094 71.2031Z" fill="#353535"/>
<path d="M20.7344 73.4062C20.375 73.7969 20.3906 74.7344 20.75 75.0469C20.9063 75.2031 21.2969 75.3125 21.6094 75.3125C22.25 75.3125 22.6563 74.8906 22.6563 74.2187C22.6563 74 22.5469 73.6562 22.4063 73.4687C22.0938 73.0312 21.1094 72.9844 20.7344 73.4062Z" fill="#353535"/>
<path d="M55.9687 77.9219C55.2031 78.5781 55.6719 80 56.6406 80C57.1562 80 57.8125 79.3437 57.8125 78.8594C57.8125 77.8906 56.6719 77.3281 55.9687 77.9219Z" fill="#353535"/>
</g>
<defs>
<clipPath id="clip0_1249_5804">
<rect width="80" height="80" fill="white"/>
</clipPath>
</defs>
</svg>
