<svg width="80" height="80" viewBox="0 0 80 80" fill="none" xmlns="http://www.w3.org/2000/svg">
<path d="M8.34375 2.07812C7.98437 2.39062 7.90625 2.60938 7.84375 3.42188C7.79687 3.98438 7.85937 4.5625 7.96875 4.84375C8.46875 6.0625 10.4375 6.0625 10.9375 4.84375C11.0469 4.5625 11.1094 3.98438 11.0625 3.42188C10.9687 2.20312 10.5156 1.71875 9.45312 1.71875C8.95312 1.71875 8.64062 1.82812 8.34375 2.07812Z" fill="#353535"/>
<path d="M0.484375 6.65625C0.078125 7 0 7.17188 0 7.76563C0 8.67188 0.15625 8.9375 1 9.4375C1.98437 10.0156 2.84375 9.98438 3.45312 9.39063C4.32812 8.51563 3.96875 7.23438 2.64062 6.5625C1.79687 6.125 1.0625 6.15625 0.484375 6.65625Z" fill="#353535"/>
<path d="M16.2188 6.56251C15.4062 7.00001 15 7.57814 15 8.31251C15 9.71876 16.5625 10.3125 17.8906 9.42189C18.75 8.84376 18.8906 8.62501 18.9062 7.84376C18.9062 6.46876 17.5938 5.84376 16.2188 6.56251Z" fill="#353535"/>
<path d="M8.07815 6.71873C6.84378 7.03123 5.65628 7.81248 4.82815 8.85936C3.32815 10.7344 3.3594 13.9844 4.89065 15.9219C7.51565 19.2344 12.7813 18.6562 14.6563 14.8437C15.25 13.6406 15.3282 11.5781 14.8438 10.2656C14.375 9.01561 13.1094 7.67186 11.875 7.12498C10.8125 6.64061 9.09378 6.46873 8.07815 6.71873ZM10.7657 10.2656C12.1875 11.3281 12.2657 13.1562 10.9375 14.2656C9.21878 15.7187 6.46878 13.9375 7.06253 11.75C7.25003 11.0781 7.84378 10.3594 8.51565 10.0625C9.12503 9.78123 10.2344 9.87498 10.7657 10.2656Z" fill="#353535"/>
<path d="M58.4062 7.95313C54.8124 9.125 52.7187 12.9688 53.6718 16.6406C54.2343 18.7656 55.6093 20.4063 57.6093 21.375L58.8281 21.9531H64.5312H70.2343L71.2499 21.4688C72.4843 20.8906 73.5937 19.7969 74.1874 18.6094C74.5624 17.8125 74.6093 17.5781 74.6093 16.0156C74.6093 14.4375 74.5781 14.2188 74.1562 13.3594C73.5624 12.1719 72.5156 11.125 71.3281 10.5313C70.5781 10.1719 70.1406 10.0625 69.0937 10.0156C68.3749 9.98438 67.4999 10.0469 67.1249 10.1406C66.4531 10.2969 66.4531 10.2969 65.7031 9.59375C65.2968 9.1875 64.4218 8.60938 63.7656 8.29688C62.6718 7.78125 62.4531 7.73438 60.9374 7.70313C59.6718 7.67188 59.0937 7.71875 58.4062 7.95313ZM62.2656 11.2344C62.9843 11.5625 63.7968 12.3438 64.2812 13.2188C64.9062 14.3281 65.8124 14.5 67.1249 13.7344C68.1874 13.1406 69.0781 13.0938 70.0312 13.625C71.2187 14.2813 71.7812 16.0156 71.1874 17.1563C70.8906 17.7188 70.1718 18.375 69.6406 18.5781C69.3593 18.6875 67.4374 18.75 64.4687 18.75H59.7499L58.9218 18.3281C57.1718 17.4688 56.3281 15.4219 56.9531 13.5781C57.6718 11.4531 60.2656 10.3125 62.2656 11.2344Z" fill="#353535"/>
<path d="M30.7969 10.7187C27.4062 11.625 25.1406 14.5469 25.1094 18.0469C25.0937 19.9219 25.8437 22.0625 26.8125 22.9844L27.1875 23.3281L26.6875 23.6406L26.1875 23.9375L25.875 23.5C25.125 22.4687 24.6094 22.0156 23.625 21.5312C22.7031 21.0781 22.4375 21.0156 21.25 21.0156C20.0625 21.0156 19.8125 21.0781 18.875 21.5312C17.6875 22.1094 16.8437 22.9687 16.3125 24.1406C15.875 25.0937 15.6875 26.6719 15.9062 27.5937C16.0312 28.1406 16.0156 28.2656 15.7656 28.4062C15.3594 28.6719 15.2656 29.0781 14.0469 36.0937C12.8906 42.75 12.8281 43.4844 13.3594 44.5469C14.2187 46.25 15.0937 46.7344 18.0312 47.2187L20.1719 47.5625L20.0937 48.4375C20.0469 48.9062 19.9219 50.5312 19.8281 52.0312L19.6562 54.7656L17.6406 58.9375C15.2031 63.9844 15.0469 64.5312 15.5312 66.375L15.7344 67.1875H14.6875H13.625L7.09375 71.3437C3.48437 73.625 0.421875 75.6406 0.28125 75.8125C0.09375 76.0156 0 76.3906 0 76.8281C0 77.3906 0.09375 77.6094 0.453125 77.9844C0.953125 78.4844 1.76562 78.5937 2.39062 78.25C2.57812 78.1562 5.42187 76.3594 8.70312 74.2656L14.6719 70.4687H26.4375C35.375 70.4531 38.2812 70.4062 38.5312 70.2656C38.7187 70.1562 41.2187 67.8437 44.0781 65.125L49.2969 60.1562H55.9531C62.4687 60.1562 62.625 60.1562 63.0312 59.8281C63.625 59.3594 66.2344 55.9687 66.3437 55.5156C66.6094 54.5156 65.7812 53.5156 64.6875 53.5156C63.9531 53.5156 63.6094 53.8125 62.2656 55.6094L61.3281 56.8594L57.9375 56.875H54.5469L54.2969 56.0469C54.1719 55.6094 52.9531 51.4219 51.5937 46.7656L49.125 38.2969L49.5625 38.1094C50.125 37.875 51.2031 36.6875 51.5156 35.9687C51.9219 35.0156 51.8437 33.3594 51.3594 32.4062C50.625 30.9531 49.4687 30.2031 47.6875 30.0156L46.6719 29.9219L46.1562 28.125C45.4531 25.7344 45.3437 25.5 44.8281 25.2344C44.0781 24.8437 43.4687 24.9375 42.875 25.5312C42.2187 26.1875 42.2031 26.4844 42.7969 28.4844L43.25 30.0156L42.8906 29.9687C42.6562 29.9375 41.4375 28.8906 39.7344 27.2656L36.9531 24.6094L38.0469 23.5156C39.7187 21.8437 40.2969 20.4375 40.3125 18C40.3281 13.1094 35.5469 9.43749 30.7969 10.7187ZM34.0156 13.9844C35.7656 14.5 37.0312 16.25 37.0312 18.125C37.0156 21.875 32.6562 23.8281 29.875 21.3281C27.9531 19.6094 27.8906 16.8281 29.75 15.0156C30.9219 13.875 32.4062 13.5156 34.0156 13.9844ZM22.1875 24.5156C22.8281 24.8437 23.4375 25.8125 23.4375 26.4844C23.4375 27.625 22.3437 28.75 21.25 28.75C20.2031 28.75 19.0625 27.6094 19.0625 26.5625C19.0625 25.8906 19.7187 24.8125 20.3125 24.5C21 24.1406 21.5 24.1406 22.1875 24.5156ZM33.3281 26.0625C33.6562 26.2031 35.4687 27.7969 37.3594 29.6094C39.2656 31.4062 40.9687 32.9687 41.1562 33.0781C41.375 33.2187 42.4531 33.2656 44.625 33.2812C47.3906 33.2812 47.8125 33.3125 48.0937 33.5469C48.5781 33.9844 48.6406 34.4219 48.2656 34.8906L47.9531 35.3125H42.1875H36.4375L34.7187 33.8437C33.7812 33.0469 32.8125 32.3437 32.5781 32.2812C32 32.1406 31.1719 32.4375 30.875 32.8906C30.5937 33.3125 30.5469 34.25 30.7812 34.6875C30.8594 34.8437 31.4844 35.4531 32.1406 36.0312C32.8125 36.6094 33.375 37.1406 33.4062 37.2031C33.5 37.4219 31.5312 38.7812 30.2344 39.3906C29.5469 39.7187 28.4219 40.125 27.7344 40.2969C26.4375 40.6406 24.5 40.9531 24.3906 40.8437C24.2812 40.7344 26.25 29.3437 26.5 28.6562C26.9531 27.375 28.2656 26.2812 29.75 25.9219C30.7031 25.7031 32.7031 25.7812 33.3281 26.0625ZM20.5312 32.0312C21.4687 32.2031 22.2656 32.375 22.3125 32.4219C22.375 32.4844 20.7812 42.2969 20.5156 43.4062C20.3594 44.0937 19.9062 44.2187 18.5156 43.9687C17.8281 43.8594 17.1094 43.7187 16.9219 43.6719C16.1562 43.4844 16.1562 43.2969 17.2031 37.25C18.1406 31.8281 18.2031 31.5781 18.5 31.6406C18.6875 31.6875 19.5937 31.8594 20.5312 32.0312ZM45.9062 39.0937C46.3125 40.5156 50.9844 56.5156 51.0469 56.6719C51.1094 56.8125 50.9219 56.875 50.4219 56.875H49.7187L49.5469 56.1562C49.2344 54.9219 48.875 54.3906 45.1719 49.7344L41.5937 45.2187L39.0781 44.0156C37.2656 43.1406 36.5625 42.7344 36.5625 42.5312C36.5625 42.3906 36.7031 41.4531 36.875 40.4687C37.0469 39.4844 37.1875 38.6562 37.1875 38.625C37.1875 38.6094 39.125 38.5937 41.4844 38.5937H45.7656L45.9062 39.0937ZM33.125 42.7812C32.8281 44.5937 32.9219 44.7031 35.875 46.1562C37.25 46.8281 38.6094 47.4844 38.9062 47.6094C39.3281 47.7812 40.2187 48.7969 42.7969 52.0781C44.9062 54.75 46.2031 56.5312 46.3125 56.8906C46.5 57.625 46.3437 58.1875 45.7344 58.8437C45.0937 59.5469 44.0156 59.7344 43.2187 59.3125C42.9219 59.1562 41.5 57.5156 39.7187 55.25L36.7031 51.4531L34.125 50.1875L31.5469 48.9062L28.4062 48.3594C25.0625 47.7812 24.5312 47.5781 23.9531 46.7187C23.5937 46.2031 23.4531 44.8281 23.7187 44.4375C23.7812 44.3437 24.5312 44.1719 25.3906 44.0781C28.0156 43.7812 31.0781 42.8594 32.6562 41.8906C32.9531 41.7187 33.2187 41.6094 33.25 41.6406C33.2812 41.6719 33.2344 42.1875 33.125 42.7812ZM24.5781 51C25.0312 51.125 25.9062 51.3125 26.5312 51.4062L27.6562 51.5937V52.2344C27.6562 52.5937 27.5781 53.7031 27.5156 54.7031L27.375 56.5312L25.1562 61.1094C22.5469 66.5156 22.5 66.6094 21.8125 66.9375C20.3906 67.6094 18.8437 66.7656 18.6406 65.2031C18.5781 64.6875 18.8437 64.0625 20.7031 60.2344L22.8437 55.8594L23 53.5937C23.1875 50.7969 23.2187 50.5625 23.5312 50.6875C23.6562 50.7344 24.125 50.875 24.5781 51ZM33.875 53.7344C34.3594 53.9844 35.2187 54.9531 37.4844 57.7969C39.9219 60.875 40.6094 61.6406 41.25 62L42.0312 62.4531L39.5469 64.8125L37.0625 67.1875H31.5C28.4375 67.1875 25.9375 67.1562 25.9375 67.125C25.9375 67.1094 26.9844 64.9219 28.2656 62.2969L30.5937 57.5156L30.6875 56.1406C30.75 55.3906 30.8281 54.2344 30.8906 53.5781L30.9687 52.375L32.1094 52.8906C32.7344 53.1875 33.5312 53.5625 33.875 53.7344Z" fill="#353535"/>
<path d="M1.32812 15.1719C0.359375 15.6719 0 16.1562 0 16.9531C0 18.3437 1.1875 18.9531 2.57812 18.2656C3.5 17.8125 3.90625 17.2969 3.90625 16.625C3.90625 15.875 3.625 15.3594 3.04688 15.0781C2.375 14.7656 2.07812 14.7812 1.32812 15.1719Z" fill="#353535"/>
<path d="M15.8593 15.0625C14.9843 15.4375 14.7031 16.8438 15.3593 17.5625C15.7968 18.0469 16.8281 18.5938 17.3124 18.5938C17.7968 18.5938 18.5468 18.1875 18.7499 17.8281C18.8281 17.6563 18.9062 17.2344 18.9062 16.8906C18.9062 16.1563 18.5156 15.6563 17.5781 15.1719C16.8593 14.7969 16.5156 14.7813 15.8593 15.0625Z" fill="#353535"/>
<path d="M8.60937 19.2812C8.04687 19.5937 7.82812 20.1406 7.8125 21.2187C7.8125 22.1094 7.85937 22.2656 8.26562 22.6719C8.875 23.2656 9.92187 23.3125 10.5625 22.7656C10.9219 22.4531 11 22.2344 11.0625 21.4219C11.1094 20.8594 11.0469 20.2812 10.9375 20C10.5937 19.1719 9.4375 18.8125 8.60937 19.2812Z" fill="#353535"/>
<path d="M73.875 41.1094C73.4844 41.2656 71.1094 44.0937 70.6563 44.9531C70.3281 45.5469 70.4375 46.2031 70.9219 46.75C71.3125 47.1875 71.4844 47.2656 72.0781 47.2656C72.9063 47.2656 73.1875 47.0469 74.4844 45.3437L75.3594 44.2187H77.2031C78.9531 44.2187 79.0625 44.2031 79.5156 43.8125C79.9219 43.4687 80 43.2969 80 42.7031C80 41.2031 79.4688 40.9375 76.4531 40.9531C75.2656 40.9531 74.1094 41.0312 73.875 41.1094Z" fill="#353535"/>
<path d="M67.4688 48.8437C66.9062 49.1406 66.7188 49.5156 66.7188 50.3125C66.7188 50.8281 66.8125 51.0625 67.1719 51.4219C68.1875 52.4219 69.8438 51.7344 69.8438 50.3125C69.8438 49.5 69.6406 49.125 69.0625 48.8281C68.5 48.5312 68.0156 48.5312 67.4688 48.8437Z" fill="#353535"/>
</svg>
