<svg width="80" height="80" viewBox="0 0 80 80" fill="none" xmlns="http://www.w3.org/2000/svg">
<g clip-path="url(#clip0_1249_5837)">
<path d="M20.8593 7.59375C17.703 8.01563 15.453 8.65625 13.0468 9.84375C9.26554 11.6875 6.28117 14.3125 3.89054 17.8594C0.312415 23.1875 -0.812585 29.7656 0.64054 36.9219C1.79679 42.6563 5.18742 48.9219 9.79679 53.875C10.4374 54.5625 10.6562 54.6875 11.1093 54.6875C11.8124 54.6875 12.3437 54.1563 12.3437 53.4688C12.3437 53.0938 12.1405 52.75 11.4687 52C5.51554 45.3281 2.49991 38.2188 2.49991 30.7813C2.49991 19.2344 11.7499 10 23.3124 10C24.8124 10 24.9687 9.96875 25.2812 9.64063C25.703 9.1875 25.7187 8.4375 25.328 7.95313C25.0468 7.59375 24.9218 7.57813 23.1718 7.5625C22.1562 7.54688 21.1249 7.5625 20.8593 7.59375Z" fill="#353535"/>
<path d="M54.2188 7.65625C49.2656 8.34375 44.8125 10.5 41.1094 13.9844L40 15.0312L38.8906 13.9844C37.6406 12.8125 35.3594 11.0781 34.5625 10.6875C33.4375 10.1562 32.3125 11.125 32.75 12.25C32.8125 12.3906 33.4844 12.9531 34.2656 13.4844C35.9375 14.625 38.0313 16.5781 39.1406 18.0312C39.5781 18.5938 39.9531 19.0469 40 19.0469C40.0469 19.0469 40.4375 18.5938 40.8594 18.0312C41.9063 16.6719 44.0313 14.6406 45.5 13.6406C51.7188 9.34375 59.5156 8.84375 66.2656 12.2812C72.6406 15.5312 76.7656 21.75 77.4375 29.1094C77.5625 30.5938 77.8906 31.0938 78.6875 31.0938C79.4063 31.0938 80 30.5156 80 29.8125C79.9844 28.875 79.5469 26.0312 79.2188 24.7969C76.9375 16.2188 70.1406 9.78125 61.4531 7.95312C59.7031 7.59375 55.8438 7.4375 54.2188 7.65625Z" fill="#353535"/>
<path d="M28.5157 8.82813C27.4532 9.875 28.8751 11.5625 30.1094 10.7031C30.7969 10.2188 30.6876 8.96875 29.9063 8.60938C29.3126 8.34375 28.9219 8.40625 28.5157 8.82813Z" fill="#353535"/>
<path d="M53.9688 12.875C53.7969 13 53.3594 13.8594 52.9688 14.8438L52.2813 16.5781L54.5313 18.8281L56.7657 21.0625L53.5 23.2344L50.2344 25.4219L48.8594 28.875C48.0938 30.7812 47.4375 32.4688 47.3907 32.625C47.3438 32.8594 48.2344 33.6875 51.5 36.4062L55.6875 39.8906L60.3438 41.0625L65 42.2188L65.0313 44.7344L65.0782 47.25L66.4844 47.6094C68.2344 48.0469 68.3282 48.0469 68.8438 47.6094C69.6719 46.8906 69.2032 45.625 68.0313 45.4062L67.5 45.2969L67.4688 42.7812L67.4219 40.25L62.1094 38.9219L56.7969 37.5781L53.5625 34.875C51.7657 33.3906 50.3125 32.125 50.3125 32.0625C50.3125 32 50.75 30.8594 51.2813 29.5156L52.25 27.0938L56.4375 24.2969C58.7344 22.7656 60.625 21.4688 60.625 21.4219C60.625 21.375 59.4219 20.125 57.9375 18.6406L55.25 15.9375L55.5313 15.2031C56.0157 13.9531 56.0313 13.5156 55.5625 13.0625C55.125 12.6094 54.4688 12.5312 53.9688 12.875Z" fill="#353535"/>
<path d="M24.1718 15.7969C22.203 16.2812 20.5624 16.7188 20.5311 16.7656C20.4843 16.8125 21.4686 18.2188 22.7186 19.875L24.9999 22.9219V25.5V28.0938L29.4061 26.3281C31.828 25.3594 33.8436 24.5 33.8749 24.4062C33.9061 24.2812 33.1874 21.2031 32.4843 18.5469C32.3436 18.0156 32.1093 17.8125 30.0311 16.4375L27.7343 14.8906L24.1718 15.7969ZM28.7499 18.5938C29.953 19.4062 30.1718 19.6094 30.2968 20.1094C30.7655 21.8906 30.9374 22.6406 30.9374 22.8281C30.9374 23.0156 30.2968 23.3125 27.6405 24.3438C27.5624 24.375 27.4999 23.875 27.4999 23.25V22.0781L26.1093 20.2188C25.3436 19.2031 24.7499 18.3281 24.7811 18.2812C24.8905 18.1719 26.7186 17.6875 27.078 17.6719C27.2343 17.6562 27.9843 18.0781 28.7499 18.5938Z" fill="#353535"/>
<path d="M11.1719 17.1094C10.7032 17.5625 10.6719 18.1094 11.0625 18.5937C11.2188 18.7812 12.25 19.4062 13.3438 19.9844L15.3594 21.0156L16.8125 24.4531C17.625 26.3437 18.2813 27.9219 18.2813 27.9844C18.2813 28.0469 17.0625 28.5781 15.5938 29.1719L12.8907 30.2344L11.7188 32.5156L10.5469 34.7969L8.82815 34.3594C6.3594 33.7187 5.81253 33.7656 5.50003 34.6719C5.37503 35.0312 5.39065 35.25 5.59378 35.6562C5.8594 36.1562 5.90628 36.1875 8.6719 36.9062C10.2188 37.2969 11.5938 37.6406 11.7188 37.6406C11.875 37.6562 12.4219 36.7187 13.3125 34.9375L14.6719 32.2187L18.1094 30.8437C20.0157 30.0937 21.5625 29.4219 21.5625 29.3594C21.5625 29.2969 20.5938 26.9687 19.4063 24.1875L17.25 19.1406L14.9063 17.9375C12.3282 16.6094 11.7813 16.4844 11.1719 17.1094Z" fill="#353535"/>
<path d="M40.5781 32.6562C39.4375 32.9531 38.9531 33.3438 35.375 36.9062L31.7656 40.5L25.1562 38.2812L18.5312 36.0781L16.375 38.2344C15.1875 39.4219 14.2188 40.4219 14.2188 40.4688C14.2344 40.5156 16.7969 41.9219 19.9219 43.5938C23.0625 45.2656 25.6094 46.7031 25.5781 46.7656C25.5625 46.8281 23.3281 49.4375 20.625 52.5625L15.7188 58.2344L13.5312 57.7812L11.3281 57.3438L9.76562 58.9062L8.20312 60.4688L13.5156 65.7812L18.8281 71.0938L20.3906 69.5312L21.9375 67.9844L21.5781 66.1406C21.3906 65.125 21.1875 64.1406 21.1562 63.9688C21.0781 63.6875 21.8438 62.9688 25.7344 59.5938C28.2969 57.375 30.8906 55.125 31.5 54.5781L32.6094 53.5938L35.7031 59.3281C37.4062 62.5 38.8125 65.1094 38.8594 65.1562C38.8906 65.1875 39.9062 64.2344 41.0938 63.0469L43.2812 60.8594L41.0625 54.1875L38.8281 47.5156L42.5156 43.7969C45.8594 40.4375 46.2344 40 46.4844 39.25C47.3125 36.7188 46.1406 33.9844 43.8281 32.9531C43.0156 32.5938 41.4219 32.4531 40.5781 32.6562ZM42.9688 35.2969C43.625 35.6406 44.1719 36.3906 44.3125 37.1406C44.5156 38.25 44.1719 38.7188 39.9375 42.9531L35.9688 46.9062L38.1719 53.5312L40.375 60.1406L40.0156 60.5312C39.7969 60.7656 39.5781 60.9375 39.5156 60.9375C39.4531 60.9375 38.0469 58.4219 36.4062 55.3438C34.75 52.2812 33.375 49.75 33.3594 49.7188C33.3125 49.6719 18.7031 62.3125 18.5312 62.5625C18.4375 62.7031 18.5469 63.5469 18.8125 64.9219C19.4688 68.1875 19.5312 68.2031 15.3125 63.9844C12.5469 61.2188 11.8438 60.4375 12 60.2812C12.1875 60.0938 12.5469 60.1562 16.2656 60.8906C16.625 60.9531 17.25 60.2969 23.1094 53.5312C26.6562 49.4375 29.5156 46.0312 29.4688 45.9531C29.4219 45.875 27.1094 44.6094 24.3438 43.125C21.5625 41.6406 19.0625 40.2812 18.7812 40.1094L18.25 39.7969L18.7031 39.3594L19.1406 38.9062L25.8281 41.125L32.5 43.3594L36.5312 39.3594C38.7344 37.1562 40.6875 35.2656 40.8594 35.1719C41.3438 34.9219 42.375 34.9688 42.9688 35.2969Z" fill="#353535"/>
<path d="M77.6562 34.0313C77.125 34.5625 77.0781 34.8125 77.4219 35.4531C77.7969 36.2031 78.6875 36.3281 79.2969 35.7031C80.0312 34.9844 79.6562 33.8594 78.6406 33.6563C78.2187 33.5781 78.0625 33.6406 77.6562 34.0313Z" fill="#353535"/>
<path d="M76.7812 38.625C76.4062 38.7969 76.2499 39.0938 75.6718 40.7031C75.0312 42.4688 73.5468 45.2812 72.2187 47.2812C67.5624 54.2188 59.6405 60.6875 49.5312 65.7812C45.6718 67.7188 40.6874 69.8438 39.9999 69.8438C39.453 69.8438 34.4374 67.7656 31.8749 66.4844C30.2655 65.6719 29.6874 65.6094 29.1405 66.1719C28.6874 66.6094 28.6405 67.125 29.0155 67.6406C29.4999 68.3594 38.9218 72.5 40.0312 72.5C40.4374 72.5 43.6718 71.25 46.3905 70.0469C59.1249 64.3906 68.953 56.7969 74.578 48.2812C76.2812 45.6875 78.6093 40.6875 78.5937 39.6406C78.578 39.2344 78.328 38.8594 77.8593 38.625C77.453 38.4062 77.2187 38.4062 76.7812 38.625Z" fill="#353535"/>
<path d="M51.2812 43.3906C51.2031 43.8906 50.8906 45.6875 50.6094 47.3906L50.1094 50.5L48.0156 51.8906C46.875 52.6562 45.9375 53.3281 45.9375 53.3594C45.9375 53.4062 46.3906 54.3594 46.9531 55.4688L47.9688 57.5H52.4688L56.9531 57.4844L59.9062 53.0312L62.875 48.5781L59.8281 45.5312L56.7969 42.5H54.125H51.4375L51.2812 43.3906ZM57.6094 46.9062C58.6719 47.9688 59.5312 48.875 59.5312 48.9375C59.5312 49.0156 58.6406 50.4062 57.5469 52.0312L55.5781 55H52.5625C49.6719 55 49.5312 54.9844 49.375 54.6719C49.2812 54.5 49.2188 54.2969 49.25 54.2188C49.2812 54.1406 50 53.5938 50.8594 53.0156L52.4219 51.9531L53 48.5156C53.3125 46.625 53.5781 45.0625 53.5781 45.0312C53.5938 45.0156 54.0625 45 54.6406 45H55.7031L57.6094 46.9062Z" fill="#353535"/>
<path d="M24.7032 63.8438C24.2814 64.375 24.2814 64.875 24.7345 65.3906C25.4532 66.2344 26.8751 65.7188 26.8751 64.6094C26.8751 63.5156 25.3751 63 24.7032 63.8438Z" fill="#353535"/>
<path d="M3.48438 67.2344C0.359375 70.3438 0 70.7656 0 71.2188C0 71.9062 0.59375 72.5 1.28125 72.5C1.73438 72.5 2.15625 72.1406 5.26562 69.0156C8.39062 65.9062 8.75 65.4844 8.75 65.0312C8.75 64.3438 8.15625 63.75 7.46875 63.75C7.01562 63.75 6.59375 64.1094 3.48438 67.2344Z" fill="#353535"/>
<path d="M9.20312 69C8.35938 69.8281 7.5625 70.75 7.42188 71.0312C7.14062 71.625 7.28125 72.1719 7.84375 72.5625C8.5625 73.0781 8.875 72.9062 10.7344 71.0469C12.2656 69.5156 12.5 69.2187 12.5 68.7812C12.5 68.0937 11.9062 67.5 11.2344 67.5C10.8125 67.5 10.5 67.7344 9.20312 69Z" fill="#353535"/>
<path d="M10.9844 74.7344C7.85938 77.8438 7.5 78.2656 7.5 78.7188C7.5 79.4062 8.09375 80 8.78125 80C9.23438 80 9.65625 79.6406 12.7656 76.5156C15.8906 73.4062 16.25 72.9844 16.25 72.5312C16.25 71.8438 15.6562 71.25 14.9688 71.25C14.5156 71.25 14.0938 71.6094 10.9844 74.7344Z" fill="#353535"/>
<path d="M4.07812 74.3125C3.65625 74.8594 3.67187 75.3437 4.10937 75.875C4.375 76.1875 4.625 76.2969 5 76.2969C5.375 76.2969 5.625 76.1875 5.89062 75.875C6.32812 75.3437 6.34375 74.8594 5.92187 74.3125C5.67187 74 5.46875 73.9062 5 73.9062C4.53125 73.9062 4.32812 74 4.07812 74.3125Z" fill="#353535"/>
<path d="M0.984466 77.5781C-0.156159 78.0625 0.187591 79.8438 1.42197 79.8438C2.07822 79.8438 2.43759 79.625 2.62509 79.0938C2.98447 78.0625 2.00009 77.1562 0.984466 77.5781Z" fill="#353535"/>
</g>
<defs>
<clipPath id="clip0_1249_5837">
<rect width="80" height="80" fill="white"/>
</clipPath>
</defs>
</svg>
