<svg width="42" height="3" viewBox="0 0 42 3" fill="none" xmlns="http://www.w3.org/2000/svg">
<path d="M42 2.99505C40.7236 2.99505 40.0655 2.28713 39.4822 1.66337C38.9238 1.06436 38.3903 0.49505 37.3333 0.49505C36.2764 0.49505 35.7429 1.06436 35.1845 1.66832C34.6011 2.29208 33.943 3 32.6667 3C31.3903 3 30.7322 2.29208 30.1538 1.66832C29.5905 1.06436 29.062 0.49505 28.005 0.49505C26.948 0.49505 26.4195 1.06436 25.8561 1.66832C25.2728 2.29208 24.6147 3 23.3433 3C22.067 3 21.4088 2.29208 20.8255 1.66832C20.2621 1.06436 19.7286 0.49505 18.6717 0.49505C17.6147 0.49505 17.0812 1.06436 16.5228 1.66832C15.9395 2.29208 15.2813 3 14.005 3C12.7286 3 12.0705 2.29208 11.4872 1.66832C10.9288 1.06436 10.3953 0.49505 9.33832 0.49505C8.28134 0.49505 7.74786 1.06436 7.18447 1.66832C6.60114 2.29208 5.94302 3 4.66667 3C3.39031 3 2.73219 2.29208 2.14886 1.66832C1.59046 1.06436 1.05698 0.49505 0 0.49505V0C1.27635 0 1.93447 0.707921 2.51781 1.33168C3.0812 1.93069 3.60969 2.5 4.67165 2.5C5.73362 2.5 6.26211 1.93069 6.8255 1.32673C7.40385 0.707921 8.06197 0 9.33832 0C10.6147 0 11.2728 0.707921 11.8561 1.33168C12.4195 1.93564 12.948 2.50495 14.005 2.50495C15.062 2.50495 15.5954 1.93564 16.1538 1.33168C16.7372 0.707921 17.3953 0 18.6717 0C19.948 0 20.6061 0.707921 21.1895 1.33168C21.7528 1.93564 22.2813 2.50495 23.3383 2.50495C24.3953 2.50495 24.9238 1.93564 25.4872 1.33168C26.0705 0.707921 26.7286 0 28.005 0C29.2813 0 29.9395 0.707921 30.5228 1.33168C31.0862 1.93564 31.6147 2.50495 32.6717 2.50495C33.7286 2.50495 34.2621 1.93564 34.8205 1.33168C35.3989 0.707921 36.062 0 37.3333 0C38.6097 0 39.2678 0.707921 39.8511 1.33168C40.4145 1.93564 40.943 2.50495 42 2.50495V2.99505Z" fill="#E8604C" fill-opacity="0.5"/>
</svg>
